 http://www.imdb.com/title/tt0453562/



The life story of Jackie Robinson and his history-making signing with the Brooklyn Dodgers under the guidance of team executive Branch Rickey. 



Director:
 Brian Helgeland 

Writer:
 Brian Helgeland (screenplay) 

Stars:
 Chadwick Boseman, Harrison Ford, Nicole Beharie 

Genres:
  Biography |  Drama |  Sport 

Country:
 USA 

Language:
 English 



    
Format                                   : AVI
Format/Info                              : Audio Video Interleave
File size                                : 1.92 GiB
Duration                                 : 2h 8mn
Overall bit rate                         : 2 145 Kbps

Video
ID                                       : 0
Format                                   : MPEG-4 Visual
Format profile                           : Advanced Simple@L5
Format settings, BVOP                    : 2
Format settings, QPel                    : No
Format settings, GMC                     : No warppoints
Format settings, Matrix                  : Default (H.263)
Codec ID                                 : XVID
Codec ID/Hint                            : XviD
Duration                                 : 2h 8mn
Bit rate                                 : 2 009 Kbps
Width                                    : 720 pixels
Height                                   : 304 pixels
Display aspect ratio                     : 2.35:1
Frame rate                               : 24.000 fps
Color space                              : YUV
Chroma subsampling                       : 4:2:0
Bit depth                                : 8 bits
Scan type                                : Progressive
Compression mode                         : Lossy
Bits/(Pixel*Frame)                       : 0.382
Stream size                              : 1.80 GiB (94%)
Writing library                          : XviD 1.2.1 (UTC 2008-12-04)

Audio
ID                                       : 1
Format                                   : AC-3
Format/Info                              : Audio Coding 3
Mode extension                           : CM (complete main)
Format settings, Endianness              : Big
Codec ID                                 : 2000
Duration                                 : 2h 8mn
Bit rate mode                            : Constant
Bit rate                                 : 128 Kbps
Channel(s)                               : 2 channels
Channel positions                        : Front: L R
Sampling rate                            : 48.0 KHz
Bit depth                                : 16 bits
Compression mode                         : Lossy
Stream size                              : 117 MiB (6%)
Alignment                                : Aligned on interleaves
Interleave, duration                     : 64 ms (1.54 video frames)
Interleave, preload duration             : 192 ms
Title                                    : xiyou (2)




    	http://www.shotpix.com/images/42637606896556334975.jpg
    	http://www.shotpix.com/images/84584586353951610652.jpg
    	http://www.shotpix.com/images/31478888524339841139.jpg